<mxfile host="65bd71144e">
    <diagram id="MQxsa0x2UIPvy5xY-XsA" name="Page-1">
        <mxGraphModel dx="2054" dy="906" grid="1" gridSize="10" guides="1" tooltips="1" connect="1" arrows="1" fold="1" page="1" pageScale="1" pageWidth="850" pageHeight="1100" math="0" shadow="0">
            <root>
                <mxCell id="0"/>
                <mxCell id="1" parent="0"/>
                <mxCell id="94" value="group" style="swimlane;fontStyle=0;childLayout=stackLayout;horizontal=1;startSize=26;horizontalStack=0;resizeParent=1;resizeParentMax=0;resizeLast=0;collapsible=1;marginBottom=0;rounded=0;shadow=0;glass=0;comic=0;sketch=0;verticalAlign=top;" vertex="1" parent="1">
                    <mxGeometry x="20" y="560" width="500" height="182" as="geometry"/>
                </mxCell>
                <mxCell id="95" value="fun" style="swimlane;fontStyle=0;childLayout=stackLayout;horizontal=1;startSize=0;horizontalStack=0;resizeParent=1;resizeParentMax=0;resizeLast=0;collapsible=0;marginBottom=0;rounded=0;shadow=0;glass=0;comic=0;sketch=0;verticalAlign=top;swimlaneLine=0;swimlaneFillColor=none;fillColor=none;noLabel=1;overflow=visible;portConstraintRotation=0;snapToPoint=0;fixDash=0;perimeter=rectanglePerimeter;dropTarget=1;expand=0;deletable=1;" vertex="1" parent="94">
                    <mxGeometry y="26" width="500" height="156" as="geometry"/>
                </mxCell>
                <mxCell id="96" value="ID - INT ONLY CANDIDATE HENCE SUPER" style="text;strokeColor=none;fillColor=none;align=left;verticalAlign=top;spacingLeft=4;spacingRight=4;overflow=hidden;rotatable=0;points=[[0,0.5],[1,0.5]];portConstraint=eastwest;" vertex="1" parent="95">
                    <mxGeometry width="500" height="26" as="geometry"/>
                </mxCell>
                <mxCell id="97" value="NAME - STR" style="text;strokeColor=none;fillColor=none;align=left;verticalAlign=top;spacingLeft=4;spacingRight=4;overflow=hidden;rotatable=0;points=[[0,0.5],[1,0.5]];portConstraint=eastwest;" vertex="1" parent="95">
                    <mxGeometry y="26" width="500" height="26" as="geometry"/>
                </mxCell>
                <mxCell id="98" value="DESCRIPTION - STR" style="text;strokeColor=none;fillColor=none;align=left;verticalAlign=top;spacingLeft=4;spacingRight=4;overflow=hidden;rotatable=0;points=[[0,0.5],[1,0.5]];portConstraint=eastwest;" vertex="1" parent="95">
                    <mxGeometry y="52" width="500" height="26" as="geometry"/>
                </mxCell>
                <mxCell id="99" value="USERS - STR" style="text;strokeColor=none;fillColor=none;align=left;verticalAlign=top;spacingLeft=4;spacingRight=4;overflow=hidden;rotatable=0;points=[[0,0.5],[1,0.5]];portConstraint=eastwest;" vertex="1" parent="95">
                    <mxGeometry y="78" width="500" height="26" as="geometry"/>
                </mxCell>
                <mxCell id="100" value="MAX CAPACTY - INT" style="text;strokeColor=none;fillColor=none;align=left;verticalAlign=top;spacingLeft=4;spacingRight=4;overflow=hidden;rotatable=0;points=[[0,0.5],[1,0.5]];portConstraint=eastwest;" vertex="1" parent="95">
                    <mxGeometry y="104" width="500" height="26" as="geometry"/>
                </mxCell>
                <mxCell id="102" value="DATE-STR" style="text;strokeColor=none;fillColor=none;align=left;verticalAlign=top;spacingLeft=4;spacingRight=4;overflow=hidden;rotatable=0;points=[[0,0.5],[1,0.5]];portConstraint=eastwest;" vertex="1" parent="95">
                    <mxGeometry y="130" width="500" height="26" as="geometry"/>
                </mxCell>
                <mxCell id="163" value="" style="edgeStyle=none;html=1;" edge="1" parent="1" source="126">
                    <mxGeometry relative="1" as="geometry">
                        <mxPoint x="408" y="230" as="targetPoint"/>
                    </mxGeometry>
                </mxCell>
                <mxCell id="126" value="USER ENTITY" style="rounded=0;whiteSpace=wrap;html=1;" vertex="1" parent="1">
                    <mxGeometry x="325" y="80" width="165" height="70" as="geometry"/>
                </mxCell>
                <mxCell id="128" value="profile" style="swimlane;fontStyle=0;childLayout=stackLayout;horizontal=1;startSize=26;horizontalStack=0;resizeParent=1;resizeParentMax=0;resizeLast=0;collapsible=1;marginBottom=0;rounded=0;shadow=0;glass=0;comic=0;sketch=0;verticalAlign=top;" vertex="1" parent="1">
                    <mxGeometry x="20" y="226" width="200" height="212" as="geometry"/>
                </mxCell>
                <mxCell id="129" value="fun" style="swimlane;fontStyle=0;childLayout=stackLayout;horizontal=1;startSize=0;horizontalStack=0;resizeParent=1;resizeParentMax=0;resizeLast=0;collapsible=0;marginBottom=0;rounded=0;shadow=0;glass=0;comic=0;sketch=0;verticalAlign=top;swimlaneLine=0;swimlaneFillColor=none;fillColor=none;noLabel=1;overflow=visible;portConstraintRotation=0;snapToPoint=0;fixDash=0;perimeter=rectanglePerimeter;dropTarget=1;expand=0;deletable=1;" vertex="1" parent="128">
                    <mxGeometry y="26" width="200" height="186" as="geometry"/>
                </mxCell>
                <mxCell id="139" value="USER ID" style="text;strokeColor=none;fillColor=none;align=left;verticalAlign=top;spacingLeft=4;spacingRight=4;overflow=hidden;rotatable=0;points=[[0,0.5],[1,0.5]];portConstraint=eastwest;" vertex="1" parent="129">
                    <mxGeometry width="200" height="30" as="geometry"/>
                </mxCell>
                <mxCell id="130" value="UNIVERSITY - STR" style="text;strokeColor=none;fillColor=none;align=left;verticalAlign=top;spacingLeft=4;spacingRight=4;overflow=hidden;rotatable=0;points=[[0,0.5],[1,0.5]];portConstraint=eastwest;" vertex="1" parent="129">
                    <mxGeometry y="30" width="200" height="26" as="geometry"/>
                </mxCell>
                <mxCell id="131" value="DEPARTAMENT - STR" style="text;strokeColor=none;fillColor=none;align=left;verticalAlign=top;spacingLeft=4;spacingRight=4;overflow=hidden;rotatable=0;points=[[0,0.5],[1,0.5]];portConstraint=eastwest;" vertex="1" parent="129">
                    <mxGeometry y="56" width="200" height="26" as="geometry"/>
                </mxCell>
                <mxCell id="133" value="DEGREE - STR" style="text;strokeColor=none;fillColor=none;align=left;verticalAlign=top;spacingLeft=4;spacingRight=4;overflow=hidden;rotatable=0;points=[[0,0.5],[1,0.5]];portConstraint=eastwest;" vertex="1" parent="129">
                    <mxGeometry y="82" width="200" height="26" as="geometry"/>
                </mxCell>
                <mxCell id="134" value="YEAR - INT" style="text;strokeColor=none;fillColor=none;align=left;verticalAlign=top;spacingLeft=4;spacingRight=4;overflow=hidden;rotatable=0;points=[[0,0.5],[1,0.5]];portConstraint=eastwest;" vertex="1" parent="129">
                    <mxGeometry y="108" width="200" height="26" as="geometry"/>
                </mxCell>
                <mxCell id="135" value="BIO - STR" style="text;strokeColor=none;fillColor=none;align=left;verticalAlign=top;spacingLeft=4;spacingRight=4;overflow=hidden;rotatable=0;points=[[0,0.5],[1,0.5]];portConstraint=eastwest;" vertex="1" parent="129">
                    <mxGeometry y="134" width="200" height="26" as="geometry"/>
                </mxCell>
                <mxCell id="136" value="ADDERESS - STR" style="text;strokeColor=none;fillColor=none;align=left;verticalAlign=top;spacingLeft=4;spacingRight=4;overflow=hidden;rotatable=0;points=[[0,0.5],[1,0.5]];portConstraint=eastwest;" vertex="1" parent="129">
                    <mxGeometry y="160" width="200" height="26" as="geometry"/>
                </mxCell>
                <mxCell id="74" value="User Table" style="swimlane;fontStyle=0;childLayout=stackLayout;horizontal=1;startSize=26;horizontalStack=0;resizeParent=1;resizeParentMax=0;resizeLast=0;collapsible=1;marginBottom=0;rounded=0;shadow=0;glass=0;comic=0;sketch=0;verticalAlign=top;" vertex="1" parent="1">
                    <mxGeometry x="318" y="226" width="215" height="256" as="geometry"/>
                </mxCell>
                <mxCell id="75" value="fun" style="swimlane;fontStyle=0;childLayout=stackLayout;horizontal=1;startSize=0;horizontalStack=0;resizeParent=1;resizeParentMax=0;resizeLast=0;collapsible=0;marginBottom=0;rounded=0;shadow=0;glass=0;comic=0;sketch=0;verticalAlign=top;swimlaneLine=0;swimlaneFillColor=none;fillColor=none;noLabel=1;overflow=visible;portConstraintRotation=0;snapToPoint=0;fixDash=0;perimeter=rectanglePerimeter;dropTarget=1;expand=0;deletable=1;" vertex="1" parent="74">
                    <mxGeometry y="26" width="215" height="230" as="geometry"/>
                </mxCell>
                <mxCell id="92" value="ID - Int - Super Key" style="rounded=0;whiteSpace=wrap;html=1;" vertex="1" parent="75">
                    <mxGeometry width="215" height="22" as="geometry"/>
                </mxCell>
                <mxCell id="76" value="Username - STR Candidate Key" style="text;strokeColor=none;fillColor=none;align=left;verticalAlign=top;spacingLeft=4;spacingRight=4;overflow=hidden;rotatable=0;points=[[0,0.5],[1,0.5]];portConstraint=eastwest;" vertex="1" parent="75">
                    <mxGeometry y="22" width="215" height="26" as="geometry"/>
                </mxCell>
                <mxCell id="77" value="Password - STR Candidate Key" style="text;strokeColor=none;fillColor=none;align=left;verticalAlign=top;spacingLeft=4;spacingRight=4;overflow=hidden;rotatable=0;points=[[0,0.5],[1,0.5]];portConstraint=eastwest;" vertex="1" parent="75">
                    <mxGeometry y="48" width="215" height="26" as="geometry"/>
                </mxCell>
                <mxCell id="78" value="Friends Str" style="text;strokeColor=none;fillColor=none;align=left;verticalAlign=top;spacingLeft=4;spacingRight=4;overflow=hidden;rotatable=0;points=[[0,0.5],[1,0.5]];portConstraint=eastwest;" vertex="1" parent="75">
                    <mxGeometry y="74" width="215" height="26" as="geometry"/>
                </mxCell>
                <mxCell id="79" value="Name - Str" style="text;strokeColor=none;fillColor=none;align=left;verticalAlign=top;spacingLeft=4;spacingRight=4;overflow=hidden;rotatable=0;points=[[0,0.5],[1,0.5]];portConstraint=eastwest;" vertex="1" parent="75">
                    <mxGeometry y="100" width="215" height="26" as="geometry"/>
                </mxCell>
                <mxCell id="80" value="Last Name - str" style="text;strokeColor=none;fillColor=none;align=left;verticalAlign=top;spacingLeft=4;spacingRight=4;overflow=hidden;rotatable=0;points=[[0,0.5],[1,0.5]];portConstraint=eastwest;" vertex="1" parent="75">
                    <mxGeometry y="126" width="215" height="26" as="geometry"/>
                </mxCell>
                <mxCell id="81" value="Emal - Str Candidate Key&#10;" style="text;strokeColor=none;fillColor=none;align=left;verticalAlign=top;spacingLeft=4;spacingRight=4;overflow=hidden;rotatable=0;points=[[0,0.5],[1,0.5]];portConstraint=eastwest;" vertex="1" parent="75">
                    <mxGeometry y="152" width="215" height="26" as="geometry"/>
                </mxCell>
                <mxCell id="82" value="Phone Num - Str" style="text;strokeColor=none;fillColor=none;align=left;verticalAlign=top;spacingLeft=4;spacingRight=4;overflow=hidden;rotatable=0;points=[[0,0.5],[1,0.5]];portConstraint=eastwest;" vertex="1" parent="75">
                    <mxGeometry y="178" width="215" height="26" as="geometry"/>
                </mxCell>
                <mxCell id="84" value="Connectd Groups - Int - Group ID" style="text;strokeColor=none;fillColor=none;align=left;verticalAlign=top;spacingLeft=4;spacingRight=4;overflow=hidden;rotatable=0;points=[[0,0.5],[1,0.5]];portConstraint=eastwest;" vertex="1" parent="75">
                    <mxGeometry y="204" width="215" height="26" as="geometry"/>
                </mxCell>
                <mxCell id="89" style="edgeStyle=none;html=1;exitX=1;exitY=0.5;exitDx=0;exitDy=0;endArrow=none;endFill=0;endSize=16;targetPerimeterSpacing=5;entryX=1;entryY=0;entryDx=0;entryDy=0;startArrow=none;startFill=0;" edge="1" parent="74" source="78" target="74">
                    <mxGeometry relative="1" as="geometry">
                        <mxPoint x="305" y="347" as="sourcePoint"/>
                        <mxPoint x="185" y="383.60000000000036" as="targetPoint"/>
                        <Array as="points">
                            <mxPoint x="258" y="91"/>
                            <mxPoint x="258"/>
                            <mxPoint x="240"/>
                            <mxPoint x="215"/>
                        </Array>
                    </mxGeometry>
                </mxCell>
                <mxCell id="90" value="*" style="edgeLabel;html=1;align=center;verticalAlign=middle;resizable=0;points=[];" vertex="1" connectable="0" parent="89">
                    <mxGeometry x="0.7778" relative="1" as="geometry">
                        <mxPoint y="-7" as="offset"/>
                    </mxGeometry>
                </mxCell>
                <mxCell id="91" value="1" style="edgeLabel;html=1;align=center;verticalAlign=middle;resizable=0;points=[];" vertex="1" connectable="0" parent="89">
                    <mxGeometry x="-0.887" relative="1" as="geometry">
                        <mxPoint y="-7" as="offset"/>
                    </mxGeometry>
                </mxCell>
                <mxCell id="157" value="" style="curved=1;endArrow=classic;html=1;exitX=1;exitY=0.5;exitDx=0;exitDy=0;entryX=1;entryY=0.5;entryDx=0;entryDy=0;" edge="1" parent="1" source="84" target="96">
                    <mxGeometry width="50" height="50" relative="1" as="geometry">
                        <mxPoint x="610" y="520" as="sourcePoint"/>
                        <mxPoint x="600" y="390" as="targetPoint"/>
                        <Array as="points">
                            <mxPoint x="610" y="469"/>
                            <mxPoint x="650" y="580"/>
                        </Array>
                    </mxGeometry>
                </mxCell>
                <mxCell id="162" value="" style="endArrow=classic;startArrow=classic;html=1;exitX=0.999;exitY=0.412;exitDx=0;exitDy=0;entryX=-0.004;entryY=0.601;entryDx=0;entryDy=0;entryPerimeter=0;exitPerimeter=0;" edge="1" parent="1" source="139" target="92">
                    <mxGeometry width="50" height="50" relative="1" as="geometry">
                        <mxPoint x="280" y="440" as="sourcePoint"/>
                        <mxPoint x="330" y="390" as="targetPoint"/>
                        <Array as="points">
                            <mxPoint x="230" y="265"/>
                        </Array>
                    </mxGeometry>
                </mxCell>
            </root>
        </mxGraphModel>
    </diagram>
</mxfile>